<svg xmlns="http://www.w3.org/2000/svg" width="185" height="40" fill="none"><path fill="#EF2A82" d="M36.508 8.706C32.905 3.45 26.855 0 20 0 8.954 0 0 8.954 0 20c0 1.607.19 3.17.547 4.667l10.185-10.185a2.5 2.5 0 0 1 3.536 0l8.232 8.233L36.508 8.706Z"/><path fill="#EF2A82" d="M38.885 13.4 24.268 28.018a2.5 2.5 0 0 1-3.536 0L12.5 19.785l-9.966 9.966C5.955 35.866 12.495 40 20 40c11.046 0 20-8.954 20-20 0-2.313-.392-4.534-1.115-6.6Z"/><path fill="#fff" d="M62.808 25.056h-5.206L56.693 28h-4.059l5.78-15.76h3.572L67.809 28h-4.08l-.92-2.944Zm-4.297-2.933H61.9l-1.7-5.466-1.688 5.466ZM82.128 28h-3.777l-5.585-9.806V28h-3.8V12.24h3.8l5.574 9.807v-9.806h3.788V28ZM93.677 25.056h-5.206L87.561 28h-4.058l5.78-15.76h3.572L98.678 28h-4.08l-.92-2.944Zm-4.297-2.933h3.388l-1.7-5.466-1.688 5.466ZM103.635 25.078h6.613V28H99.836V12.24h3.799v12.838ZM114.588 19.081l2.901-6.84h4.102l-5.076 10.098V28h-3.853v-5.66l-5.066-10.1h4.081l2.911 6.841ZM135.305 15.174h-4.73V28h-3.799V15.174h-4.644v-2.933h13.173v2.933ZM140.965 28h-3.788V12.24h3.788V28ZM156.356 22.664c-.05 1.097-.346 2.067-.887 2.912-.541.837-1.303 1.486-2.284 1.948-.974.461-2.089.692-3.344.692-2.071 0-3.702-.674-4.893-2.024-1.19-1.349-1.786-3.254-1.786-5.714v-.78c0-1.544.267-2.893.801-4.048.542-1.162 1.317-2.056 2.327-2.684 1.011-.635 2.18-.952 3.507-.952 1.912 0 3.449.505 4.611 1.515 1.162 1.003 1.822 2.388 1.981 4.156h-3.788c-.029-.96-.271-1.649-.726-2.067-.454-.419-1.147-.628-2.078-.628-.945 0-1.638.354-2.078 1.06-.44.708-.671 1.837-.693 3.389v1.114c0 1.682.21 2.883.628 3.605.426.721 1.155 1.082 2.187 1.082.873 0 1.54-.206 2.002-.617.462-.411.707-1.064.736-1.96h3.777ZM166.282 23.811c0-.555-.199-.988-.596-1.299-.389-.31-1.078-.631-2.067-.963-.989-.332-1.797-.653-2.424-.963-2.043-1.003-3.064-2.381-3.064-4.135 0-.873.253-1.641.758-2.305.512-.671 1.234-1.19 2.165-1.559.931-.375 1.977-.563 3.139-.563 1.133 0 2.146.202 3.041.607.902.404 1.602.98 2.1 1.731.498.743.747 1.595.747 2.555h-3.789c0-.643-.198-1.14-.595-1.494-.39-.354-.92-.53-1.591-.53-.678 0-1.216.151-1.613.454-.389.296-.584.675-.584 1.137 0 .404.216.772.649 1.104.433.324 1.195.663 2.284 1.017 1.09.346 1.984.722 2.684 1.126 1.703.981 2.555 2.334 2.555 4.059 0 1.378-.52 2.46-1.559 3.247-1.039.786-2.464 1.18-4.275 1.18-1.277 0-2.436-.228-3.475-.682-1.031-.462-1.811-1.09-2.337-1.884-.52-.8-.78-1.72-.78-2.76h3.81c0 .845.217 1.469.65 1.873.44.397 1.15.595 2.132.595.628 0 1.122-.134 1.483-.4.368-.275.552-.657.552-1.148Z"/></svg>