<svg width="1080" height="815" viewBox="0 0 1080 815" fill="none" xmlns="http://www.w3.org/2000/svg">
<g opacity="0.07">
<path d="M1312.47 280.844C1182.93 87.8186 965.442 -38.8096 719 -38.8096C321.907 -38.8096 -5.99526e-07 289.955 -1.33908e-06 695.508C-1.44667e-06 754.509 6.81372 811.886 19.6807 866.861L385.824 492.918C420.922 457.072 477.828 457.072 512.926 492.918L808.875 795.172L1312.47 280.844Z" fill="#8794BA"/>
<path d="M1397.93 453.187L872.426 989.887C837.328 1025.73 780.422 1025.73 745.324 989.887L449.375 687.634L91.1038 1053.54C214.1 1278.05 449.195 1429.83 719 1429.83C1116.09 1429.83 1438 1101.06 1438 695.508C1438 610.597 1423.89 529.053 1397.93 453.187Z" fill="#8794BA"/>
</g>
</svg>
